<?xml version="1.0" encoding="utf-8"?>
<!-- Generator: Adobe Illustrator 16.0.0, SVG Export Plug-In . SVG Version: 6.00 Build 0)  -->
<!DOCTYPE svg PUBLIC "-//W3C//DTD SVG 1.1//EN" "http://www.w3.org/Graphics/SVG/1.1/DTD/svg11.dtd">
<svg version="1.1" id="Capa_1" xmlns="http://www.w3.org/2000/svg" xmlns:xlink="http://www.w3.org/1999/xlink" x="0px" y="0px"
	 width="1728px" height="1728px" viewBox="0 0 1728 1728" enable-background="new 0 0 1728 1728" xml:space="preserve">
<g>
	<linearGradient id="SVGID_1_" gradientUnits="userSpaceOnUse" x1="864.0005" y1="1705.751" x2="864.0004" y2="22.2495">
		<stop  offset="0" style="stop-color:#0072A0"/>
		<stop  offset="1" style="stop-color:#35A8E0"/>
	</linearGradient>
	<path fill="url(#SVGID_1_)" stroke="#2C3A7C" stroke-width="50" stroke-miterlimit="10" d="M1705.8,1632.3
		c0,40.6-32.9,73.4-73.5,73.4H95.7c-40.5,0-73.4-32.9-73.4-73.4V95.7c0-40.5,32.9-73.4,73.4-73.4h1536.6c40.6,0,73.5,32.9,73.5,73.4
		V1632.3z"/>
	<linearGradient id="SVGID_2_" gradientUnits="userSpaceOnUse" x1="555.0571" y1="858.4517" x2="555.0571" y2="236.6147">
		<stop  offset="0" style="stop-color:#848483"/>
		<stop  offset="1" style="stop-color:#FBE4F0"/>
	</linearGradient>
	<polyline fill="url(#SVGID_2_)" points="244.1,269.4 244.1,253 244.1,236.6 555.1,236.6 866,236.6 866,547.5 866,858.5 
		555.1,858.5 244.1,858.5 244.1,563.9 244.1,269.4 	"/>
	<linearGradient id="SVGID_3_" gradientUnits="userSpaceOnUse" x1="555.0591" y1="1487.0371" x2="555.0591" y2="865.2051">
		<stop  offset="0" style="stop-color:#203B8F"/>
		<stop  offset="1" style="stop-color:#0082CA"/>
	</linearGradient>
	<rect x="244.1" y="865.2" fill="url(#SVGID_3_)" width="621.8" height="621.8"/>
	<linearGradient id="SVGID_4_" gradientUnits="userSpaceOnUse" x1="1177.3662" y1="858.4487" x2="1177.3662" y2="236.6177">
		<stop  offset="0" style="stop-color:#203B8F"/>
		<stop  offset="1" style="stop-color:#0082CA"/>
	</linearGradient>
	<rect x="866.5" y="236.6" fill="url(#SVGID_4_)" width="621.8" height="621.8"/>
	<linearGradient id="SVGID_5_" gradientUnits="userSpaceOnUse" x1="1177.3652" y1="1487.0371" x2="1177.3652" y2="865.2031">
		<stop  offset="0" style="stop-color:#848483"/>
		<stop  offset="1" style="stop-color:#FBE4F0"/>
	</linearGradient>
	<rect x="866.5" y="865.2" fill="url(#SVGID_5_)" width="621.8" height="621.8"/>
</g>
</svg>
