<?xml version="1.0" encoding="utf-8"?>
<!-- Generator: Adobe Illustrator 16.0.0, SVG Export Plug-In . SVG Version: 6.00 Build 0)  -->
<!DOCTYPE svg PUBLIC "-//W3C//DTD SVG 1.1//EN" "http://www.w3.org/Graphics/SVG/1.1/DTD/svg11.dtd">
<svg version="1.1" id="Capa_1" xmlns="http://www.w3.org/2000/svg" xmlns:xlink="http://www.w3.org/1999/xlink" x="0px" y="0px"
	 width="24px" height="24px" viewBox="0 0 24 24" enable-background="new 0 0 24 24" xml:space="preserve">
<g>
	
		<linearGradient id="SVGID_1_" gradientUnits="userSpaceOnUse" x1="-554.3711" y1="445.5703" x2="-554.3711" y2="468.5713" gradientTransform="matrix(1 0 0 -1 566.3999 469.0996)">
		<stop  offset="0" style="stop-color:#0072A2"/>
		<stop  offset="1" style="stop-color:#36A9E1"/>
	</linearGradient>
	<path fill="url(#SVGID_1_)" stroke="#2D3A7C" stroke-miterlimit="10" d="M23.5,22.5c0,0.6-0.4,1-1,1h-21c-0.6,0-1-0.4-1-1v-21
		c0-0.6,0.4-1,1-1h21c0.6,0,1,0.4,1,1L23.5,22.5L23.5,22.5z"/>
	
		<linearGradient id="SVGID_2_" gradientUnits="userSpaceOnUse" x1="-558.5981" y1="457.1436" x2="-558.5981" y2="465.6504" gradientTransform="matrix(1 0 0 -1 566.3999 469.0996)">
		<stop  offset="0" style="stop-color:#858584"/>
		<stop  offset="1" style="stop-color:#FCE5F1"/>
	</linearGradient>
	<polyline fill="url(#SVGID_2_)" points="3.5,3.9 3.5,3.7 3.5,3.4 7.8,3.4 12.1,3.4 12.1,7.7 12.1,12 7.8,12 3.5,12 3.5,7.9 
		3.5,3.9 	"/>
	
		<linearGradient id="SVGID_3_" gradientUnits="userSpaceOnUse" x1="-558.6025" y1="448.5605" x2="-558.6025" y2="457.0576" gradientTransform="matrix(1 0 0 -1 566.3999 469.0996)">
		<stop  offset="0" style="stop-color:#203B90"/>
		<stop  offset="1" style="stop-color:#0083CB"/>
	</linearGradient>
	<rect x="3.5" y="12" fill="url(#SVGID_3_)" width="8.5" height="8.5"/>
	
		<linearGradient id="SVGID_4_" gradientUnits="userSpaceOnUse" x1="-550.0962" y1="457.1523" x2="-550.0962" y2="465.6504" gradientTransform="matrix(1 0 0 -1 566.3999 469.0996)">
		<stop  offset="0" style="stop-color:#203B90"/>
		<stop  offset="1" style="stop-color:#0083CB"/>
	</linearGradient>
	<rect x="12.1" y="3.4" fill="url(#SVGID_4_)" width="8.5" height="8.5"/>
	
		<linearGradient id="SVGID_5_" gradientUnits="userSpaceOnUse" x1="-550.0962" y1="448.5605" x2="-550.0962" y2="457.0576" gradientTransform="matrix(1 0 0 -1 566.3999 469.0996)">
		<stop  offset="0" style="stop-color:#858584"/>
		<stop  offset="1" style="stop-color:#FCE5F1"/>
	</linearGradient>
	<rect x="12.1" y="12" fill="url(#SVGID_5_)" width="8.5" height="8.5"/>
</g>
</svg>
